<?xml version="1.0" encoding="UTF-8"?>
<svg xmlns="http://www.w3.org/2000/svg" xmlns:xlink="http://www.w3.org/1999/xlink" width="32pt" height="32pt" viewBox="0 0 32 32" version="1.1">
<defs>
<filter id="alpha" filterUnits="objectBoundingBox" x="0%" y="0%" width="100%" height="100%">
  <feColorMatrix type="matrix" in="SourceGraphic" values="0 0 0 0 1 0 0 0 0 1 0 0 0 0 1 0 0 0 1 0"/>
</filter>
<mask id="mask0">
  <g filter="url(#alpha)">
<rect x="0" y="0" width="32" height="32" style="fill:rgb(0%,0%,0%);fill-opacity:0.501961;stroke:none;"/>
  </g>
</mask>
<clipPath id="clip1">
  <rect width="32" height="32"/>
</clipPath>
<g id="surface6" clip-path="url(#clip1)">
<path style=" stroke:none;fill-rule:evenodd;fill:#A4ADB2;fill-opacity:1;" d="M 8.050781 19.925781 L 10.0625 19.925781 L 10.0625 21.9375 L 8.050781 21.9375 Z M 8.050781 19.925781 "/>
</g>
<mask id="mask1">
  <g filter="url(#alpha)">
<rect x="0" y="0" width="32" height="32" style="fill:rgb(0%,0%,0%);fill-opacity:0.4;stroke:none;"/>
  </g>
</mask>
<clipPath id="clip2">
  <rect width="32" height="32"/>
</clipPath>
<g id="surface9" clip-path="url(#clip2)">
<path style=" stroke:none;fill-rule:evenodd;fill:#A4ADB2;fill-opacity:1;" d="M 6.039062 21.9375 L 8.050781 21.9375 L 8.050781 23.949219 L 6.039062 23.949219 Z M 6.039062 21.9375 "/>
</g>
<mask id="mask2">
  <g filter="url(#alpha)">
<rect x="0" y="0" width="32" height="32" style="fill:rgb(0%,0%,0%);fill-opacity:0.301961;stroke:none;"/>
  </g>
</mask>
<clipPath id="clip3">
  <rect width="32" height="32"/>
</clipPath>
<g id="surface12" clip-path="url(#clip3)">
<path style=" stroke:none;fill-rule:evenodd;fill:#A4ADB2;fill-opacity:1;" d="M 8.050781 23.949219 L 10.0625 23.949219 L 10.0625 25.960938 L 8.050781 25.960938 Z M 8.050781 23.949219 "/>
</g>
<mask id="mask3">
  <g filter="url(#alpha)">
<rect x="0" y="0" width="32" height="32" style="fill:rgb(0%,0%,0%);fill-opacity:0.101961;stroke:none;"/>
  </g>
</mask>
<clipPath id="clip4">
  <rect width="32" height="32"/>
</clipPath>
<g id="surface15" clip-path="url(#clip4)">
<path style=" stroke:none;fill-rule:evenodd;fill:#A4ADB2;fill-opacity:1;" d="M 6.039062 25.960938 L 8.050781 25.960938 L 8.050781 27.976562 L 6.039062 27.976562 Z M 6.039062 25.960938 "/>
</g>
<mask id="mask4">
  <g filter="url(#alpha)">
<rect x="0" y="0" width="32" height="32" style="fill:rgb(0%,0%,0%);fill-opacity:0.282353;stroke:none;"/>
  </g>
</mask>
<clipPath id="clip5">
  <rect width="32" height="32"/>
</clipPath>
<g id="surface18" clip-path="url(#clip5)">
<path style=" stroke:none;fill-rule:evenodd;fill:#A4ADB2;fill-opacity:1;" d="M 4.023438 23.949219 L 6.039062 23.949219 L 6.039062 25.960938 L 4.023438 25.960938 Z M 4.023438 23.949219 "/>
</g>
<mask id="mask5">
  <g filter="url(#alpha)">
<rect x="0" y="0" width="32" height="32" style="fill:rgb(0%,0%,0%);fill-opacity:0.239216;stroke:none;"/>
  </g>
</mask>
<clipPath id="clip6">
  <rect width="32" height="32"/>
</clipPath>
<g id="surface21" clip-path="url(#clip6)">
<path style=" stroke:none;fill-rule:evenodd;fill:#A4ADB2;fill-opacity:1;" d="M 2.011719 25.960938 L 4.023438 25.960938 L 4.023438 27.976562 L 2.011719 27.976562 Z M 2.011719 25.960938 "/>
</g>
<mask id="mask6">
  <g filter="url(#alpha)">
<rect x="0" y="0" width="32" height="32" style="fill:rgb(0%,0%,0%);fill-opacity:0.0509804;stroke:none;"/>
  </g>
</mask>
<clipPath id="clip7">
  <rect width="32" height="32"/>
</clipPath>
<g id="surface24" clip-path="url(#clip7)">
<path style=" stroke:none;fill-rule:evenodd;fill:#A4ADB2;fill-opacity:1;" d="M 0 23.949219 L 2.011719 23.949219 L 2.011719 25.960938 L 0 25.960938 Z M 0 23.949219 "/>
</g>
<mask id="mask7">
  <g filter="url(#alpha)">
<rect x="0" y="0" width="32" height="32" style="fill:rgb(0%,0%,0%);fill-opacity:0.0509804;stroke:none;"/>
  </g>
</mask>
<clipPath id="clip8">
  <rect width="32" height="32"/>
</clipPath>
<g id="surface27" clip-path="url(#clip8)">
<path style=" stroke:none;fill-rule:evenodd;fill:#A4ADB2;fill-opacity:1;" d="M 2.011719 21.9375 L 4.023438 21.9375 L 4.023438 23.949219 L 2.011719 23.949219 Z M 2.011719 21.9375 "/>
</g>
<mask id="mask8">
  <g filter="url(#alpha)">
<rect x="0" y="0" width="32" height="32" style="fill:rgb(0%,0%,0%);fill-opacity:0.0509804;stroke:none;"/>
  </g>
</mask>
<clipPath id="clip9">
  <rect width="32" height="32"/>
</clipPath>
<g id="surface30" clip-path="url(#clip9)">
<path style=" stroke:none;fill-rule:evenodd;fill:#A4ADB2;fill-opacity:1;" d="M 4.023438 27.976562 L 6.039062 27.976562 L 6.039062 29.988281 L 4.023438 29.988281 Z M 4.023438 27.976562 "/>
</g>
<mask id="mask9">
  <g filter="url(#alpha)">
<rect x="0" y="0" width="32" height="32" style="fill:rgb(0%,0%,0%);fill-opacity:0.0509804;stroke:none;"/>
  </g>
</mask>
<clipPath id="clip10">
  <rect width="32" height="32"/>
</clipPath>
<g id="surface33" clip-path="url(#clip10)">
<path style=" stroke:none;fill-rule:evenodd;fill:#A4ADB2;fill-opacity:1;" d="M 0 27.976562 L 2.011719 27.976562 L 2.011719 29.988281 L 0 29.988281 Z M 0 27.976562 "/>
</g>
<mask id="mask10">
  <g filter="url(#alpha)">
<rect x="0" y="0" width="32" height="32" style="fill:rgb(0%,0%,0%);fill-opacity:0.0509804;stroke:none;"/>
  </g>
</mask>
<clipPath id="clip11">
  <rect width="32" height="32"/>
</clipPath>
<g id="surface36" clip-path="url(#clip11)">
<path style=" stroke:none;fill-rule:evenodd;fill:#A4ADB2;fill-opacity:1;" d="M 2.011719 29.988281 L 4.023438 29.988281 L 4.023438 32 L 2.011719 32 Z M 2.011719 29.988281 "/>
</g>
<mask id="mask11">
  <g filter="url(#alpha)">
<rect x="0" y="0" width="32" height="32" style="fill:rgb(0%,0%,0%);fill-opacity:0.0509804;stroke:none;"/>
  </g>
</mask>
<clipPath id="clip12">
  <rect width="32" height="32"/>
</clipPath>
<g id="surface39" clip-path="url(#clip12)">
<path style=" stroke:none;fill-rule:evenodd;fill:#A4ADB2;fill-opacity:1;" d="M 6.039062 29.988281 L 8.050781 29.988281 L 8.050781 32 L 6.039062 32 Z M 6.039062 29.988281 "/>
</g>
</defs>
<g id="surface1">
<path style=" stroke:none;fill-rule:nonzero;fill:#A4ADB2;fill-opacity:1;" d="M 30.628906 2.800781 C 30.628906 2.800781 22.066406 6.660156 18.339844 9.453125 L 13.402344 13.15625 L 11.105469 16.832031 C 10.230469 17.136719 10.0625 18.703125 10.0625 19.15625 C 10.0625 19.726562 10.535156 20.199219 11.105469 20.199219 C 11.558594 20.199219 13.039062 20.109375 13.292969 19.382812 L 16.851562 19.722656 L 17.808594 19.03125 L 18.675781 20.070312 L 21.007812 18.261719 L 20.160156 17.238281 L 22.136719 15.902344 C 26.03125 13.265625 31.765625 4.128906 31.765625 4.128906 C 32.425781 3.363281 31.578125 2.308594 30.628906 2.800781 Z M 30.628906 2.800781 "/>
<path style=" stroke:none;fill-rule:nonzero;fill:#A4ADB2;fill-opacity:1;" d="M 29.304688 18.414062 C 29.304688 18.414062 28.605469 20.113281 26.726562 20.113281 C 25.828125 20.113281 25.007812 20.625 24.652344 21.246094 C 24.296875 21.867188 24.230469 22.4375 24.148438 22.945312 C 24.066406 23.449219 23.960938 23.90625 23.898438 24.011719 C 23.835938 24.121094 24.027344 24.039062 23.707031 24.011719 C 23.675781 24.011719 23.402344 23.847656 23.207031 23.445312 C 23.105469 23.246094 23.046875 23.011719 23.015625 22.882812 C 23.0625 22.753906 23.136719 22.621094 23.144531 22.503906 C 23.160156 22.222656 23.089844 22 23.015625 21.8125 C 22.875 21.433594 22.648438 21.175781 22.449219 20.929688 C 22.054688 20.441406 21.632812 20.050781 21.632812 20.050781 L 20.3125 21.558594 C 20.3125 21.558594 20.625 21.878906 20.878906 22.1875 C 20.988281 22.328125 21.105469 22.457031 21.128906 22.503906 C 21.132812 22.511719 21.128906 22.5625 21.128906 22.566406 C 21.136719 22.652344 21.003906 22.816406 21.003906 22.882812 C 21.011719 23.050781 21.03125 23.167969 21.066406 23.320312 C 21.136719 23.628906 21.207031 23.976562 21.382812 24.328125 C 21.730469 25.03125 22.359375 25.933594 23.519531 26.027344 C 24.394531 26.097656 25.304688 25.632812 25.660156 25.019531 C 26.011719 24.40625 26.015625 23.824219 26.097656 23.320312 C 26.179688 22.820312 26.328125 22.402344 26.414062 22.253906 C 26.5 22.101562 26.386719 22.125 26.726562 22.125 C 29.808594 22.125 31.128906 19.296875 31.128906 19.296875 Z M 29.304688 18.414062 "/>
<use xlink:href="#surface6" mask="url(#mask0)"/>
<use xlink:href="#surface9" mask="url(#mask1)"/>
<use xlink:href="#surface12" mask="url(#mask2)"/>
<use xlink:href="#surface15" mask="url(#mask3)"/>
<use xlink:href="#surface18" mask="url(#mask4)"/>
<use xlink:href="#surface21" mask="url(#mask5)"/>
<use xlink:href="#surface24" mask="url(#mask6)"/>
<use xlink:href="#surface27" mask="url(#mask7)"/>
<use xlink:href="#surface30" mask="url(#mask8)"/>
<use xlink:href="#surface33" mask="url(#mask9)"/>
<use xlink:href="#surface36" mask="url(#mask10)"/>
<use xlink:href="#surface39" mask="url(#mask11)"/>
</g>
</svg>
