<?xml version="1.0" encoding="UTF-8"?>
<svg xmlns="http://www.w3.org/2000/svg" xmlns:xlink="http://www.w3.org/1999/xlink" width="32pt" height="32pt" viewBox="0 0 32 32" version="1.1">
<g id="surface1">
<path style=" stroke:none;fill-rule:nonzero;fill:#A4ADB2;fill-opacity:1;" d="M 15.929688 6.730469 L 10.664062 10.597656 C 10.683594 10.570312 10.601562 10.558594 10.0625 10.664062 C 1.53125 12.320312 1 14.199219 1 17.0625 L 1 27.726562 C 1 28.90625 1.953125 29.859375 3.132812 29.859375 C 4.3125 29.859375 5.265625 28.90625 5.265625 27.726562 L 5.265625 14.527344 L 7.996094 18.527344 L 10.265625 21.859375 L 16.195312 30.722656 C 17.015625 31.9375 18.484375 32.367188 19.460938 31.65625 L 30.058594 23.992188 C 31.035156 23.285156 31.144531 21.738281 30.324219 20.527344 L 24.460938 11.863281 L 24.460938 14.929688 C 24.460938 17.285156 22.550781 19.195312 20.195312 19.195312 C 17.839844 19.195312 15.929688 17.285156 15.929688 14.929688 Z M 15.929688 6.730469 "/>
<path style=" stroke:none;fill-rule:nonzero;fill:#A4ADB2;fill-opacity:1;" d="M 20.199219 0 C 21.375 0 22.328125 0.953125 22.328125 2.132812 L 22.328125 14.929688 C 22.328125 16.105469 21.375 17.0625 20.199219 17.0625 C 19.019531 17.0625 18.066406 16.105469 18.066406 14.929688 L 18.066406 2.132812 C 18.066406 0.953125 19.019531 0 20.199219 0 Z M 20.199219 0 "/>
</g>
</svg>
