<?xml version="1.0" encoding="UTF-8"?>
<svg xmlns="http://www.w3.org/2000/svg" xmlns:xlink="http://www.w3.org/1999/xlink" width="32pt" height="32pt" viewBox="0 0 32 32" version="1.1">
<defs>
<clipPath id="clip1">
  <rect width="32" height="32"/>
</clipPath>
<g id="surface7" clip-path="url(#clip1)">
<path style=" stroke:none;fill-rule:nonzero;fill:rgb(52.54902%,54.901961%,59.607843%);fill-opacity:1;" d="M 7.890625 28.054688 C 7.890625 25.875 6.125 24.109375 3.945312 24.109375 C 1.765625 24.109375 0 25.875 0 28.054688 C 0 30.234375 1.765625 32 3.945312 32 C 6.125 32 7.890625 30.234375 7.890625 28.054688 Z M 7.890625 28.054688 "/>
</g>
<clipPath id="clip2">
  <rect width="32" height="32"/>
</clipPath>
<g id="surface10" clip-path="url(#clip2)">
<path style=" stroke:none;fill-rule:nonzero;fill:rgb(52.54902%,54.901961%,59.607843%);fill-opacity:1;" d="M 32 24.140625 C 32 21.988281 30.253906 20.242188 28.101562 20.242188 C 25.949219 20.242188 24.203125 21.988281 24.203125 24.140625 C 24.203125 26.292969 25.949219 28.039062 28.101562 28.039062 C 30.253906 28.039062 32 26.292969 32 24.140625 Z M 32 24.140625 "/>
</g>
<clipPath id="clip3">
  <rect width="32" height="32"/>
</clipPath>
<g id="surface13" clip-path="url(#clip3)">
<path style=" stroke:none;fill-rule:nonzero;fill:rgb(52.54902%,54.901961%,59.607843%);fill-opacity:1;" d="M 30.003906 4.023438 C 30.003906 1.886719 28.273438 0.15625 26.136719 0.15625 C 24 0.15625 22.269531 1.886719 22.269531 4.023438 C 22.269531 6.160156 24 7.890625 26.136719 7.890625 C 28.273438 7.890625 30.003906 6.160156 30.003906 4.023438 Z M 30.003906 4.023438 "/>
</g>
<clipPath id="clip4">
  <rect width="32" height="32"/>
</clipPath>
<g id="surface16" clip-path="url(#clip4)">
<path style=" stroke:none;fill-rule:nonzero;fill:rgb(52.54902%,54.901961%,59.607843%);fill-opacity:1;" d="M 27.289062 2.402344 L 25.730469 2.652344 L 3.773438 6.644531 L 2.527344 6.894531 L 2.527344 31.28125 L 4.957031 29.222656 L 16.1875 19.867188 L 27.289062 25.417969 L 29.722656 26.667969 L 29.472656 23.984375 L 27.476562 4.023438 Z M 24.671875 5.957031 L 26.230469 21.550781 L 16.6875 16.8125 L 15.8125 16.375 L 15.0625 17 L 5.519531 24.984375 L 5.519531 9.386719 Z M 24.671875 5.957031 "/>
</g>
<clipPath id="clip5">
  <rect width="32" height="32"/>
</clipPath>
<g id="surface19" clip-path="url(#clip5)">
<path style=" stroke:none;fill-rule:nonzero;fill:rgb(52.54902%,54.901961%,59.607843%);fill-opacity:1;" d="M 20.148438 18.230469 C 20.148438 15.980469 18.324219 14.160156 16.078125 14.160156 C 13.832031 14.160156 12.007812 15.980469 12.007812 18.230469 C 12.007812 20.476562 13.832031 22.300781 16.078125 22.300781 C 18.324219 22.300781 20.148438 20.476562 20.148438 18.230469 Z M 20.148438 18.230469 "/>
</g>
</defs>
<g id="surface1">
<path style=" stroke:none;fill-rule:nonzero;fill:rgb(52.54902%,54.901961%,59.607843%);fill-opacity:1;" d="M 8.015625 8.15625 C 8.015625 5.941406 6.222656 4.148438 4.007812 4.148438 C 1.792969 4.148438 0 5.941406 0 8.15625 C 0 10.371094 1.792969 12.164062 4.007812 12.164062 C 6.222656 12.164062 8.015625 10.371094 8.015625 8.15625 Z M 8.015625 8.15625 "/>
<use xlink:href="#surface7"/>
<use xlink:href="#surface10"/>
<use xlink:href="#surface13"/>
<use xlink:href="#surface16"/>
<use xlink:href="#surface19"/>
</g>
</svg>
