<?xml version="1.0" encoding="UTF-8"?>
<svg xmlns="http://www.w3.org/2000/svg" xmlns:xlink="http://www.w3.org/1999/xlink" width="32pt" height="32pt" viewBox="0 0 32 32" version="1.1">
<g id="surface1">
<path style=" stroke:none;fill-rule:nonzero;fill:rgb(52.54902%,54.901961%,59.607843%);fill-opacity:1;" d="M 0 23 L 0 31 L 16 31 L 10.667969 23 Z M 16 31 L 32 31 L 32 23 L 21.332031 23 Z M 16 31 "/>
<path style=" stroke:none;fill-rule:nonzero;fill:rgb(52.54902%,54.901961%,59.607843%);fill-opacity:1;" d="M 2.667969 20.929688 C 2.667969 20.929688 13.332031 20.929688 13.332031 10.585938 C 16 8.515625 18.667969 10.585938 18.667969 10.585938 C 18.667969 20.929688 29.332031 20.929688 29.332031 20.929688 L 29.332031 23 L 2.667969 23 Z M 2.667969 20.929688 "/>
<path style=" stroke:none;fill-rule:nonzero;fill:rgb(52.54902%,54.901961%,59.607843%);fill-opacity:1;" d="M 21.332031 7 C 21.332031 4.054688 18.945312 1.667969 16 1.667969 C 13.054688 1.667969 10.667969 4.054688 10.667969 7 C 10.667969 9.945312 13.054688 12.332031 16 12.332031 C 18.945312 12.332031 21.332031 9.945312 21.332031 7 Z M 21.332031 7 "/>
</g>
</svg>
