<?xml version="1.0" encoding="UTF-8"?>
<svg xmlns="http://www.w3.org/2000/svg" xmlns:xlink="http://www.w3.org/1999/xlink" width="32pt" height="32pt" viewBox="0 0 32 32" version="1.1">
<g id="surface1">
<path style=" stroke:none;fill-rule:evenodd;fill:#A4ADB2;fill-opacity:1;" d="M 20.472656 10.78125 L 12.058594 22.074219 L 8.679688 25.050781 L 7.285156 23.933594 L 9.273438 19.839844 L 17.691406 8.542969 Z M 20.472656 10.78125 "/>
<path style=" stroke:none;fill-rule:evenodd;fill:#A4ADB2;fill-opacity:1;" d="M 7.285156 25.078125 C 7.285156 25.078125 4.339844 26.414062 4.363281 29.226562 C 4.394531 32.734375 9.667969 32.90625 9.835938 29.796875 C 9.929688 28.019531 7.285156 25.078125 7.285156 25.078125 Z M 7.285156 25.078125 "/>
<path style=" stroke:none;fill-rule:evenodd;fill:#A4ADB2;fill-opacity:1;" d="M 12.566406 8.835938 L 21.835938 15.871094 L 23.242188 14.023438 L 20.460938 11.914062 C 26.050781 10.332031 29.875 3.589844 26.164062 0.773438 C 22.457031 -2.039062 16.78125 3.296875 16.75 9.101562 L 13.96875 6.988281 Z M 12.566406 8.835938 "/>
</g>
</svg>
