<?xml version="1.0" encoding="UTF-8"?>
<svg xmlns="http://www.w3.org/2000/svg" xmlns:xlink="http://www.w3.org/1999/xlink" width="32pt" height="32pt" viewBox="0 0 32 32" version="1.1">
<defs>
<filter id="alpha" filterUnits="objectBoundingBox" x="0%" y="0%" width="100%" height="100%">
  <feColorMatrix type="matrix" in="SourceGraphic" values="0 0 0 0 1 0 0 0 0 1 0 0 0 0 1 0 0 0 1 0"/>
</filter>
<mask id="mask0">
  <g filter="url(#alpha)">
<rect x="0" y="0" width="32" height="32" style="fill:rgb(0%,0%,0%);fill-opacity:0.301961;stroke:none;"/>
  </g>
</mask>
<clipPath id="clip1">
  <rect width="32" height="32"/>
</clipPath>
<g id="surface6" clip-path="url(#clip1)">
<path style=" stroke:none;fill-rule:nonzero;fill:rgb(52.54902%,54.901961%,59.607843%);fill-opacity:1;" d="M 14.007812 26.914062 C 14.007812 24.164062 11.773438 21.929688 9.023438 21.929688 C 6.269531 21.929688 4.039062 24.164062 4.039062 26.914062 C 4.039062 29.667969 6.269531 31.898438 9.023438 31.898438 C 11.773438 31.898438 14.007812 29.667969 14.007812 26.914062 Z M 14.007812 26.914062 "/>
</g>
</defs>
<g id="surface1">
<path style=" stroke:none;fill-rule:nonzero;fill:rgb(52.54902%,54.901961%,59.607843%);fill-opacity:1;" d="M 8.023438 0 L 10.019531 0 L 10.019531 1.992188 L 8.023438 1.992188 Z M 8.023438 0 "/>
<path style=" stroke:none;fill-rule:nonzero;fill:rgb(52.54902%,54.901961%,59.607843%);fill-opacity:1;" d="M 12.011719 0 L 14.007812 0 L 14.007812 1.992188 L 12.011719 1.992188 Z M 12.011719 0 "/>
<path style=" stroke:none;fill-rule:nonzero;fill:rgb(52.54902%,54.901961%,59.607843%);fill-opacity:1;" d="M 16 0 L 17.992188 0 L 17.992188 1.992188 L 16 1.992188 Z M 16 0 "/>
<path style=" stroke:none;fill-rule:nonzero;fill:rgb(52.54902%,54.901961%,59.607843%);fill-opacity:1;" d="M 19.988281 0 L 21.980469 0 L 21.980469 1.992188 L 19.988281 1.992188 Z M 19.988281 0 "/>
<path style=" stroke:none;fill-rule:nonzero;fill:rgb(52.54902%,54.901961%,59.607843%);fill-opacity:1;" d="M 23.976562 0 L 25.96875 0 L 25.96875 1.992188 L 23.976562 1.992188 Z M 23.976562 0 "/>
<path style=" stroke:none;fill-rule:nonzero;fill:rgb(52.54902%,54.901961%,59.607843%);fill-opacity:1;" d="M 23.976562 3.988281 L 25.96875 3.988281 L 25.96875 5.980469 L 23.976562 5.980469 Z M 23.976562 3.988281 "/>
<path style=" stroke:none;fill-rule:nonzero;fill:rgb(52.54902%,54.901961%,59.607843%);fill-opacity:1;" d="M 23.976562 9.96875 L 25.96875 9.96875 L 25.96875 7.976562 L 23.976562 7.976562 Z M 23.976562 9.96875 "/>
<path style=" stroke:none;fill-rule:nonzero;fill:rgb(52.54902%,54.901961%,59.607843%);fill-opacity:1;" d="M 23.976562 13.957031 L 25.96875 13.957031 L 25.96875 11.960938 L 23.976562 11.960938 Z M 23.976562 13.957031 "/>
<path style=" stroke:none;fill-rule:nonzero;fill:rgb(52.54902%,54.901961%,59.607843%);fill-opacity:1;" d="M 23.976562 17.945312 L 25.96875 17.945312 L 25.96875 15.949219 L 23.976562 15.949219 Z M 23.976562 17.945312 "/>
<path style=" stroke:none;fill-rule:nonzero;fill:rgb(52.54902%,54.901961%,59.607843%);fill-opacity:1;" d="M 4.039062 9.96875 L 6.03125 9.96875 L 6.03125 7.976562 L 4.039062 7.976562 Z M 4.039062 9.96875 "/>
<path style=" stroke:none;fill-rule:nonzero;fill:rgb(52.54902%,54.901961%,59.607843%);fill-opacity:1;" d="M 4.039062 5.980469 L 6.03125 5.980469 L 6.03125 3.988281 L 4.039062 3.988281 Z M 4.039062 5.980469 "/>
<path style=" stroke:none;fill-rule:nonzero;fill:rgb(52.54902%,54.901961%,59.607843%);fill-opacity:1;" d="M 4.039062 1.992188 L 6.03125 1.992188 L 6.03125 0 L 4.039062 0 Z M 4.039062 1.992188 "/>
<path style=" stroke:none;fill-rule:nonzero;fill:rgb(52.54902%,54.901961%,59.607843%);fill-opacity:1;" d="M 19.988281 8.972656 C 19.988281 6.21875 17.757812 3.988281 15.003906 3.988281 C 12.25 3.988281 10.019531 6.21875 10.019531 8.972656 C 10.019531 11.726562 12.25 13.957031 15.003906 13.957031 C 17.757812 13.957031 19.988281 11.726562 19.988281 8.972656 Z M 19.988281 8.972656 "/>
<path style=" stroke:none;fill-rule:nonzero;fill:rgb(52.54902%,54.901961%,59.607843%);fill-opacity:1;" d="M 22.976562 21.929688 C 20.238281 21.929688 17.992188 24.199219 17.992188 26.964844 C 17.992188 29.734375 20.238281 32 22.976562 32 C 25.71875 32 27.960938 29.734375 27.960938 26.964844 C 27.960938 24.199219 25.71875 21.929688 22.976562 21.929688 Z M 22.976562 23.945312 C 24.640625 23.945312 25.96875 25.285156 25.96875 26.964844 C 25.96875 28.644531 24.640625 29.984375 22.976562 29.984375 C 21.316406 29.984375 19.988281 28.644531 19.988281 26.964844 C 19.988281 25.285156 21.316406 23.945312 22.976562 23.945312 Z M 22.976562 23.945312 "/>
<use xlink:href="#surface6" mask="url(#mask0)"/>
<path style=" stroke:none;fill-rule:nonzero;fill:rgb(52.54902%,54.901961%,59.607843%);fill-opacity:1;" d="M 4.039062 13.957031 L 6.03125 13.957031 L 6.03125 11.960938 L 4.039062 11.960938 Z M 4.039062 13.957031 "/>
<path style=" stroke:none;fill-rule:nonzero;fill:rgb(52.54902%,54.901961%,59.607843%);fill-opacity:1;" d="M 4.039062 17.945312 L 6.03125 17.945312 L 6.03125 15.949219 L 4.039062 15.949219 Z M 4.039062 17.945312 "/>
<path style=" stroke:none;fill-rule:nonzero;fill:rgb(52.54902%,54.901961%,59.607843%);fill-opacity:1;" d="M 8.023438 17.945312 L 10.019531 17.945312 L 10.019531 15.949219 L 8.023438 15.949219 Z M 8.023438 17.945312 "/>
<path style=" stroke:none;fill-rule:nonzero;fill:rgb(52.54902%,54.901961%,59.607843%);fill-opacity:1;" d="M 12.011719 17.945312 L 14.007812 17.945312 L 14.007812 15.949219 L 12.011719 15.949219 Z M 12.011719 17.945312 "/>
<path style=" stroke:none;fill-rule:nonzero;fill:rgb(52.54902%,54.901961%,59.607843%);fill-opacity:1;" d="M 16 17.945312 L 17.992188 17.945312 L 17.992188 15.949219 L 16 15.949219 Z M 16 17.945312 "/>
<path style=" stroke:none;fill-rule:nonzero;fill:rgb(52.54902%,54.901961%,59.607843%);fill-opacity:1;" d="M 19.988281 17.945312 L 21.980469 17.945312 L 21.980469 15.949219 L 19.988281 15.949219 Z M 19.988281 17.945312 "/>
</g>
</svg>
