<?xml version="1.0" encoding="UTF-8"?>
<svg xmlns="http://www.w3.org/2000/svg" xmlns:xlink="http://www.w3.org/1999/xlink" width="32pt" height="32pt" viewBox="0 0 32 32" version="1.1">
<defs>
<filter id="alpha" filterUnits="objectBoundingBox" x="0%" y="0%" width="100%" height="100%">
  <feColorMatrix type="matrix" in="SourceGraphic" values="0 0 0 0 1 0 0 0 0 1 0 0 0 0 1 0 0 0 1 0"/>
</filter>
<mask id="mask0">
  <g filter="url(#alpha)">
<rect x="0" y="0" width="32" height="32" style="fill:rgb(0%,0%,0%);fill-opacity:0.301961;stroke:none;"/>
  </g>
</mask>
<clipPath id="clip1">
  <rect width="32" height="32"/>
</clipPath>
<g id="surface6" clip-path="url(#clip1)">
<path style=" stroke:none;fill-rule:nonzero;fill:#A4ADB2;fill-opacity:1;" d="M 6.855469 1.285156 L 20.570312 1.285156 L 20.570312 8.144531 L 6.855469 8.144531 Z M 6.855469 1.285156 "/>
</g>
</defs>
<g id="surface1">
<path style=" stroke:none;fill-rule:nonzero;fill:#A4ADB2;fill-opacity:1;" d="M 22.855469 3.570312 L 32 3.570312 L 32 5.855469 L 22.855469 5.855469 Z M 22.855469 3.570312 "/>
<path style=" stroke:none;fill-rule:nonzero;fill:#A4ADB2;fill-opacity:1;" d="M 0 15 L 9.144531 15 L 9.144531 17.285156 L 0 17.285156 Z M 0 15 "/>
<path style=" stroke:none;fill-rule:nonzero;fill:#A4ADB2;fill-opacity:1;" d="M 0 26.429688 L 4.570312 26.429688 L 4.570312 28.714844 L 0 28.714844 Z M 0 26.429688 "/>
<path style=" stroke:none;fill-rule:nonzero;fill:#A4ADB2;fill-opacity:1;" d="M 11.429688 12.714844 L 25.144531 12.714844 L 25.144531 19.570312 L 11.429688 19.570312 Z M 11.429688 12.714844 "/>
<use xlink:href="#surface6" mask="url(#mask0)"/>
<path style=" stroke:none;fill-rule:nonzero;fill:#A4ADB2;fill-opacity:1;" d="M 6.855469 24.144531 L 6.855469 31 L 20.570312 31 L 20.570312 24.144531 Z M 9.144531 26.429688 L 18.285156 26.429688 L 18.285156 28.714844 L 9.144531 28.714844 Z M 9.144531 26.429688 "/>
<path style=" stroke:none;fill-rule:nonzero;fill:#A4ADB2;fill-opacity:1;" d="M 27.429688 15 L 32 15 L 32 17.285156 L 27.429688 17.285156 Z M 27.429688 15 "/>
<path style=" stroke:none;fill-rule:nonzero;fill:#A4ADB2;fill-opacity:1;" d="M 22.855469 26.429688 L 32 26.429688 L 32 28.714844 L 22.855469 28.714844 Z M 22.855469 26.429688 "/>
<path style=" stroke:none;fill-rule:nonzero;fill:#A4ADB2;fill-opacity:1;" d="M 0 3.570312 L 4.570312 3.570312 L 4.570312 5.855469 L 0 5.855469 Z M 0 3.570312 "/>
</g>
</svg>
