<?xml version="1.0" encoding="UTF-8"?>
<svg xmlns="http://www.w3.org/2000/svg" xmlns:xlink="http://www.w3.org/1999/xlink" width="32pt" height="32pt" viewBox="0 0 32 32" version="1.1">
<g id="surface1">
<path style=" stroke:none;fill-rule:nonzero;fill:#A4ADB2;fill-opacity:1;" d="M 0 0 L 0 32 L 32 32 L 32 0 Z M 2.285156 2.285156 L 29.714844 2.285156 L 29.714844 29.714844 L 2.285156 29.714844 Z M 2.285156 2.285156 "/>
<path style=" stroke:none;fill-rule:nonzero;fill:#A4ADB2;fill-opacity:1;" d="M 30.570312 5.144531 C 28.144531 13.425781 25.851562 17.71875 24.144531 19.355469 C 23.289062 20.175781 22.667969 20.328125 22.070312 20.285156 C 21.476562 20.242188 20.785156 19.871094 20 19.214844 C 18.433594 17.902344 16.800781 15.515625 15.070312 13.5 C 14.207031 12.492188 13.296875 11.566406 12.285156 10.929688 C 11.277344 10.289062 10.019531 9.945312 8.785156 10.355469 C 6.828125 11.007812 5.503906 12.691406 4.5 14.644531 C 3.496094 16.59375 2.773438 18.855469 2.285156 21.070312 C 1.3125 25.503906 1.144531 29.644531 1.144531 29.644531 L 3.429688 29.785156 C 3.429688 29.785156 3.578125 25.769531 4.5 21.570312 C 4.960938 19.472656 5.640625 17.3125 6.5 15.644531 C 7.359375 13.972656 8.390625 12.871094 9.5 12.5 C 9.980469 12.339844 10.410156 12.4375 11.070312 12.855469 C 11.730469 13.273438 12.484375 14.066406 13.285156 15 C 14.886719 16.867188 16.597656 19.347656 18.570312 21 C 19.558594 21.828125 20.640625 22.476562 21.929688 22.570312 C 23.214844 22.664062 24.535156 22.128906 25.714844 21 C 27.832031 18.96875 29.828125 14.953125 32 8.070312 L 32 5.570312 Z M 30.570312 5.144531 "/>
</g>
</svg>
