<?xml version="1.0" encoding="UTF-8"?>
<svg xmlns="http://www.w3.org/2000/svg" xmlns:xlink="http://www.w3.org/1999/xlink" width="32pt" height="32pt" viewBox="0 0 32 32" version="1.1">
<g id="surface1">
<path style=" stroke:none;fill-rule:nonzero;fill:#A4ADB2;fill-opacity:1;" d="M 28 16 C 28 11.582031 22.03125 8 14.667969 8 C 7.304688 8 1.332031 11.582031 1.332031 16 C 1.332031 20.417969 7.304688 24 14.667969 24 C 22.03125 24 28 20.417969 28 16 Z M 28 16 "/>
<path style=" stroke:none;fill-rule:nonzero;fill:#A4ADB2;fill-opacity:1;" d="M 14.667969 0 C 13.761719 0 12.875 0.0820312 12 0.167969 L 12 2.832031 C 12.882812 2.734375 13.746094 2.667969 14.667969 2.667969 Z M 17.332031 0.167969 L 17.332031 2.832031 C 18.261719 2.929688 19.121094 3.144531 20 3.332031 L 20 0.582031 C 19.125 0.414062 18.25 0.253906 17.332031 0.167969 Z M 9.332031 0.5 C 8.417969 0.675781 7.527344 0.90625 6.667969 1.167969 L 6.667969 4 C 7.527344 3.707031 8.410156 3.453125 9.332031 3.25 Z M 22.667969 1.25 L 22.667969 4 C 23.617188 4.320312 24.480469 4.742188 25.332031 5.167969 L 25.332031 2.167969 C 24.484375 1.800781 23.585938 1.527344 22.667969 1.25 Z M 4 2.167969 C 3.046875 2.582031 2.1875 3.066406 1.332031 3.582031 L 1.332031 6.75 C 2.160156 6.144531 3.03125 5.570312 4 5.082031 Z M 28 3.5 L 28 6.75 C 29.007812 7.484375 29.914062 8.285156 30.667969 9.167969 L 30.667969 5.417969 C 29.851562 4.730469 28.964844 4.070312 28 3.5 Z M 30.667969 22.832031 C 29.914062 23.726562 29.011719 24.59375 28 25.332031 L 28 28.5 C 28.960938 27.921875 29.855469 27.273438 30.667969 26.582031 Z M 1.332031 25.332031 L 1.332031 28.417969 C 2.1875 28.929688 3.046875 29.417969 4 29.832031 L 4 27 C 3.023438 26.511719 2.160156 25.945312 1.332031 25.332031 Z M 25.332031 26.917969 C 24.5 27.332031 23.585938 27.683594 22.667969 28 L 22.667969 30.832031 C 23.597656 30.550781 24.472656 30.207031 25.332031 29.832031 Z M 6.667969 28.082031 L 6.667969 30.832031 C 7.535156 31.097656 8.414062 31.324219 9.332031 31.5 L 9.332031 28.832031 C 8.394531 28.636719 7.535156 28.378906 6.667969 28.082031 Z M 20 28.75 C 19.128906 28.9375 18.25 29.066406 17.332031 29.167969 L 17.332031 31.832031 C 18.246094 31.730469 19.117188 31.589844 20 31.417969 Z M 12 29.167969 L 12 31.832031 C 12.878906 31.914062 13.757812 32 14.667969 32 L 14.667969 29.332031 C 13.757812 29.332031 12.875 29.257812 12 29.167969 Z M 12 29.167969 "/>
</g>
</svg>
