<?xml version="1.0" encoding="UTF-8"?>
<svg xmlns="http://www.w3.org/2000/svg" xmlns:xlink="http://www.w3.org/1999/xlink" width="32pt" height="32pt" viewBox="0 0 32 32" version="1.1">
<g id="surface1">
<path style=" stroke:none;fill-rule:nonzero;fill:rgb(52.54902%,54.901961%,59.607843%);fill-opacity:1;" d="M 23.199219 0.0234375 C 23.015625 0.0585938 22.832031 0.179688 22.699219 0.308594 L 12.917969 9.445312 L 22.125 19.367188 L 31.621094 10.515625 C 32.160156 10.007812 32.027344 8.957031 31.335938 8.160156 L 24.980469 0.808594 C 24.460938 0.210938 23.738281 -0.0859375 23.199219 0.0234375 Z M 23.199219 0.0234375 "/>
<path style=" stroke:none;fill-rule:nonzero;fill:rgb(52.54902%,54.901961%,59.607843%);fill-opacity:1;" d="M 10.277344 11.941406 L 4.925781 16.9375 C 4.382812 17.445312 4.445312 18.5 5.140625 19.292969 L 11.5625 26.648438 C 12.257812 27.441406 13.234375 27.652344 13.777344 27.144531 L 19.414062 21.863281 Z M 10.277344 11.941406 "/>
<path style=" stroke:none;fill-rule:nonzero;fill:rgb(52.54902%,54.901961%,59.607843%);fill-opacity:1;" d="M 17.585938 29.714844 C 16.703125 29.714844 15.988281 30.226562 15.988281 30.859375 C 15.988281 31.492188 16.703125 32 17.585938 32 L 31.976562 32 L 31.976562 29.714844 Z M 17.585938 29.714844 "/>
<path style=" stroke:none;fill-rule:nonzero;fill:rgb(52.54902%,54.901961%,59.607843%);fill-opacity:1;" d="M 5.253906 29.714844 C 6.140625 29.714844 6.851562 30.226562 6.851562 30.859375 C 6.851562 31.492188 6.140625 32 5.253906 32 C 0.457031 32 0.683594 32 0 32 L 0 29.714844 C 0 29.714844 0.457031 29.714844 5.253906 29.714844 Z M 5.253906 29.714844 "/>
</g>
</svg>
