<?xml version="1.0" encoding="UTF-8"?>
<svg xmlns="http://www.w3.org/2000/svg" xmlns:xlink="http://www.w3.org/1999/xlink" width="32pt" height="32pt" viewBox="0 0 32 32" version="1.1">
<defs>
<filter id="alpha" filterUnits="objectBoundingBox" x="0%" y="0%" width="100%" height="100%">
  <feColorMatrix type="matrix" in="SourceGraphic" values="0 0 0 0 1 0 0 0 0 1 0 0 0 0 1 0 0 0 1 0"/>
</filter>
<mask id="mask0">
  <g filter="url(#alpha)">
<rect x="0" y="0" width="32" height="32" style="fill:rgb(0%,0%,0%);fill-opacity:0.301961;stroke:none;"/>
  </g>
</mask>
<clipPath id="clip1">
  <rect width="32" height="32"/>
</clipPath>
<g id="surface6" clip-path="url(#clip1)">
<path style=" stroke:none;fill-rule:nonzero;fill:#A4ADB2;fill-opacity:1;" d="M 8 0 L 8 4 L 28 4 L 28 18 L 32 18 L 32 0 Z M 8 0 "/>
</g>
</defs>
<g id="surface1">
<path style=" stroke:none;fill-rule:nonzero;fill:#A4ADB2;fill-opacity:1;" d="M 18 15 C 18 17.761719 15.761719 20 13 20 C 10.238281 20 8 17.761719 8 15 C 8 12.238281 10.238281 10 13 10 C 15.761719 10 18 12.238281 18 15 Z M 18 15 "/>
<path style=" stroke:none;fill-rule:nonzero;fill:#A4ADB2;fill-opacity:1;" d="M 8 20 C 6 20 4 20 4 22 C 4 23.84375 4 28 4 28 L 22 28 L 22 22 C 22 20 20 20 18 20 L 18 22 L 8 22 Z M 8 20 "/>
<use xlink:href="#surface6" mask="url(#mask0)"/>
<path style=" stroke:none;fill-rule:nonzero;fill:#A4ADB2;fill-opacity:1;" d="M 0 6 L 2 6 L 2 8 L 0 8 Z M 0 6 "/>
<path style=" stroke:none;fill-rule:nonzero;fill:#A4ADB2;fill-opacity:1;" d="M 4 6 L 6 6 L 6 8 L 4 8 Z M 4 6 "/>
<path style=" stroke:none;fill-rule:nonzero;fill:#A4ADB2;fill-opacity:1;" d="M 8 6 L 10 6 L 10 8 L 8 8 Z M 8 6 "/>
<path style=" stroke:none;fill-rule:nonzero;fill:#A4ADB2;fill-opacity:1;" d="M 12 6 L 14 6 L 14 8 L 12 8 Z M 12 6 "/>
<path style=" stroke:none;fill-rule:nonzero;fill:#A4ADB2;fill-opacity:1;" d="M 16 6 L 18 6 L 18 8 L 16 8 Z M 16 6 "/>
<path style=" stroke:none;fill-rule:nonzero;fill:#A4ADB2;fill-opacity:1;" d="M 20 6 L 22 6 L 22 8 L 20 8 Z M 20 6 "/>
<path style=" stroke:none;fill-rule:nonzero;fill:#A4ADB2;fill-opacity:1;" d="M 24 6 L 26 6 L 26 8 L 24 8 Z M 24 6 "/>
<path style=" stroke:none;fill-rule:nonzero;fill:#A4ADB2;fill-opacity:1;" d="M 24 10 L 26 10 L 26 12 L 24 12 Z M 24 10 "/>
<path style=" stroke:none;fill-rule:nonzero;fill:#A4ADB2;fill-opacity:1;" d="M 24 14 L 26 14 L 26 16 L 24 16 Z M 24 14 "/>
<path style=" stroke:none;fill-rule:nonzero;fill:#A4ADB2;fill-opacity:1;" d="M 24 18 L 26 18 L 26 20 L 24 20 Z M 24 18 "/>
<path style=" stroke:none;fill-rule:nonzero;fill:#A4ADB2;fill-opacity:1;" d="M 24 22 L 26 22 L 26 24 L 24 24 Z M 24 22 "/>
<path style=" stroke:none;fill-rule:nonzero;fill:#A4ADB2;fill-opacity:1;" d="M 24 26 L 26 26 L 26 28 L 24 28 Z M 24 26 "/>
<path style=" stroke:none;fill-rule:nonzero;fill:#A4ADB2;fill-opacity:1;" d="M 20 30 L 22 30 L 22 32 L 20 32 Z M 20 30 "/>
<path style=" stroke:none;fill-rule:nonzero;fill:#A4ADB2;fill-opacity:1;" d="M 16 30 L 18 30 L 18 32 L 16 32 Z M 16 30 "/>
<path style=" stroke:none;fill-rule:nonzero;fill:#A4ADB2;fill-opacity:1;" d="M 24 30 L 26 30 L 26 32 L 24 32 Z M 24 30 "/>
<path style=" stroke:none;fill-rule:nonzero;fill:#A4ADB2;fill-opacity:1;" d="M 0 10 L 2 10 L 2 12 L 0 12 Z M 0 10 "/>
<path style=" stroke:none;fill-rule:nonzero;fill:#A4ADB2;fill-opacity:1;" d="M 0 14 L 2 14 L 2 16 L 0 16 Z M 0 14 "/>
<path style=" stroke:none;fill-rule:nonzero;fill:#A4ADB2;fill-opacity:1;" d="M 0 18 L 2 18 L 2 20 L 0 20 Z M 0 18 "/>
<path style=" stroke:none;fill-rule:nonzero;fill:#A4ADB2;fill-opacity:1;" d="M 0 22 L 2 22 L 2 24 L 0 24 Z M 0 22 "/>
<path style=" stroke:none;fill-rule:nonzero;fill:#A4ADB2;fill-opacity:1;" d="M 0 26 L 2 26 L 2 28 L 0 28 Z M 0 26 "/>
<path style=" stroke:none;fill-rule:nonzero;fill:#A4ADB2;fill-opacity:1;" d="M 0 30 L 2 30 L 2 32 L 0 32 Z M 0 30 "/>
<path style=" stroke:none;fill-rule:nonzero;fill:#A4ADB2;fill-opacity:1;" d="M 4 30 L 6 30 L 6 32 L 4 32 Z M 4 30 "/>
<path style=" stroke:none;fill-rule:nonzero;fill:#A4ADB2;fill-opacity:1;" d="M 8 30 L 10 30 L 10 32 L 8 32 Z M 8 30 "/>
<path style=" stroke:none;fill-rule:nonzero;fill:#A4ADB2;fill-opacity:1;" d="M 12 30 L 14 30 L 14 32 L 12 32 Z M 12 30 "/>
</g>
</svg>
