<?xml version="1.0" encoding="UTF-8"?>
<svg xmlns="http://www.w3.org/2000/svg" xmlns:xlink="http://www.w3.org/1999/xlink" width="32pt" height="32pt" viewBox="0 0 32 32" version="1.1">
<g id="surface1">
<path style=" stroke:none;fill-rule:nonzero;fill:#A4ADB2;fill-opacity:1;" d="M 15.050781 0.613281 C 7.121094 0.746094 0.0703125 7.78125 0.0234375 15.738281 C -0.453125 24.144531 6.957031 31.875 15.328125 31.988281 C 23.09375 32.324219 30.421875 26.050781 31.265625 18.316406 C 31.621094 15.921875 31.179688 13.511719 30.679688 11.171875 C 25.347656 11.265625 19.988281 10.996094 14.671875 11.285156 C 11.171875 11.921875 9.261719 16.566406 11.628906 19.347656 C 13.363281 21.867188 17.316406 22.117188 19.347656 19.828125 C 20.089844 19.148438 20.792969 17.183594 21.984375 18.4375 C 22.371094 19.6875 20.921875 20.832031 20.113281 21.660156 C 16.636719 24.757812 10.429688 23.070312 9.125 18.558594 C 7.636719 14.597656 10.59375 9.757812 14.796875 9.417969 C 19.789062 9.277344 24.789062 9.40625 29.785156 9.359375 C 26.863281 4.042969 21.214844 0.371094 15.050781 0.613281 Z M 15.050781 0.613281 "/>
</g>
</svg>
