<?xml version="1.0" encoding="UTF-8"?>
<svg xmlns="http://www.w3.org/2000/svg" xmlns:xlink="http://www.w3.org/1999/xlink" width="32pt" height="32pt" viewBox="0 0 32 32" version="1.1">
<defs>
<filter id="alpha" filterUnits="objectBoundingBox" x="0%" y="0%" width="100%" height="100%">
  <feColorMatrix type="matrix" in="SourceGraphic" values="0 0 0 0 1 0 0 0 0 1 0 0 0 0 1 0 0 0 1 0"/>
</filter>
<mask id="mask0">
  <g filter="url(#alpha)">
<rect x="0" y="0" width="32" height="32" style="fill:rgb(0%,0%,0%);fill-opacity:0.501961;stroke:none;"/>
  </g>
</mask>
<clipPath id="clip1">
  <rect width="32" height="32"/>
</clipPath>
<g id="surface6" clip-path="url(#clip1)">
<path style=" stroke:none;fill-rule:nonzero;fill:rgb(52.54902%,54.901961%,59.607843%);fill-opacity:1;" d="M 5.898438 4.6875 C 3.988281 4.605469 2.238281 5.679688 1.417969 7.601562 L 0.421875 9.878906 C -0.667969 12.445312 0.421875 15.503906 2.914062 16.707031 L 4.902344 17.632812 L 10.453125 6.464844 L 7.820312 5.183594 C 7.199219 4.882812 6.535156 4.710938 5.898438 4.6875 Z M 27.023438 14.429688 L 21.40625 25.597656 L 24.179688 26.949219 C 26.667969 28.15625 29.488281 27.097656 30.582031 24.53125 L 31.578125 22.253906 C 32.667969 19.6875 31.578125 16.632812 29.085938 15.425781 Z M 27.023438 14.429688 "/>
</g>
</defs>
<g id="surface1">
<path style=" stroke:none;fill-rule:nonzero;fill:rgb(52.54902%,54.901961%,59.607843%);fill-opacity:1;" d="M 16.921875 1.230469 C 16.429688 1.636719 15.996094 2.160156 15.683594 2.765625 L 5.082031 23.535156 C 3.84375 25.96875 4.835938 28.972656 7.285156 30.273438 L 9.4375 31.402344 C 11.882812 32.707031 14.835938 31.804688 16.074219 29.371094 L 26.675781 8.605469 C 27.917969 6.171875 26.921875 3.167969 24.476562 1.867188 L 22.324219 0.734375 C 20.488281 -0.242188 18.394531 0.0078125 16.921875 1.230469 Z M 13.574219 11.390625 C 14.324219 10.832031 15.417969 10.976562 15.992188 11.707031 C 16.566406 12.441406 16.417969 13.507812 15.667969 14.066406 C 14.917969 14.625 13.824219 14.480469 13.25 13.75 C 12.675781 13.019531 12.824219 11.949219 13.574219 11.390625 Z M 11.3125 15.898438 C 12.0625 15.339844 13.160156 15.480469 13.730469 16.214844 C 14.304688 16.945312 14.15625 18.011719 13.40625 18.570312 C 12.65625 19.128906 11.5625 18.988281 10.988281 18.253906 C 10.414062 17.523438 10.5625 16.457031 11.3125 15.898438 Z M 18.195312 13.597656 C 18.945312 13.039062 20.039062 13.179688 20.613281 13.914062 C 21.1875 14.644531 21.039062 15.710938 20.289062 16.269531 C 19.539062 16.828125 18.441406 16.6875 17.871094 15.953125 C 17.296875 15.222656 17.445312 14.15625 18.195312 13.597656 Z M 15.933594 18.101562 C 16.683594 17.542969 17.777344 17.6875 18.351562 18.417969 C 18.925781 19.148438 18.777344 20.21875 18.027344 20.777344 C 17.277344 21.335938 16.183594 21.191406 15.609375 20.460938 C 15.035156 19.726562 15.183594 18.660156 15.933594 18.101562 Z M 15.933594 18.101562 "/>
<use xlink:href="#surface6" mask="url(#mask0)"/>
</g>
</svg>
