<?xml version="1.0" encoding="UTF-8"?>
<svg xmlns="http://www.w3.org/2000/svg" xmlns:xlink="http://www.w3.org/1999/xlink" width="32pt" height="32pt" viewBox="0 0 32 32" version="1.1">
<g id="surface1">
<path style=" stroke:none;fill-rule:nonzero;fill:#A4ADB2;fill-opacity:1;" d="M 18.015625 14.070312 C 16.914062 14.070312 16.023438 14.578125 16.023438 15.191406 L 16.023438 16.933594 C 16.023438 17.546875 16.914062 18.054688 18.015625 18.054688 L 14.03125 18.054688 C 12.933594 18.054688 11.835938 19.113281 12.101562 20.359375 L 14.03125 29.695312 C 14.296875 30.941406 14.925781 32 16.023438 32 L 27.976562 32 C 29.074219 32 29.703125 30.941406 29.96875 29.695312 L 31.960938 20.359375 C 32.226562 19.113281 31.066406 18.054688 29.96875 18.054688 L 25.984375 18.054688 C 27.089844 18.054688 27.976562 17.546875 27.976562 16.933594 L 27.976562 15.191406 C 27.976562 14.578125 27.089844 14.070312 25.984375 14.070312 Z M 18.015625 14.070312 "/>
<path style=" stroke:none;fill-rule:nonzero;fill:#A4ADB2;fill-opacity:1;" d="M 14.03125 0.125 C 14.03125 0.125 11.453125 0.476562 8.71875 2.117188 C 2.078125 6.101562 0.0859375 13.03125 0.0859375 16.0625 C -0.597656 24.21875 3.011719 26.023438 3.011719 26.023438 C 3.199219 30.007812 4.070312 32 4.070312 32 C 6.0625 30.007812 6.0625 30.007812 6.0625 30.007812 C 6.0625 30.007812 4.070312 25.027344 8.054688 24.03125 C 7.058594 14.070312 7.847656 6.101562 14.03125 0.125 Z M 14.03125 0.125 "/>
</g>
</svg>
