<?xml version="1.0" encoding="UTF-8"?>
<svg xmlns="http://www.w3.org/2000/svg" xmlns:xlink="http://www.w3.org/1999/xlink" width="32pt" height="32pt" viewBox="0 0 32 32" version="1.1">
<g id="surface1">
<path style=" stroke:none;fill-rule:nonzero;fill:rgb(52.54902%,54.901961%,59.607843%);fill-opacity:1;" d="M 6.269531 4.265625 C 4.332031 5.085938 3.699219 6.863281 4.820312 8.28125 L 12.898438 19.027344 L 9.707031 22.523438 L 12.292969 25.601562 L 15.234375 21.933594 L 18.121094 25.601562 L 20.683594 22.652344 L 17.570312 19.027344 L 25.652344 8.28125 C 26.769531 6.863281 26.136719 5.085938 24.199219 4.265625 L 15.234375 16.074219 Z M 6.269531 4.265625 "/>
<path style=" stroke:none;fill-rule:nonzero;fill:rgb(52.54902%,54.901961%,59.607843%);fill-opacity:1;" d="M 23.464844 19.199219 C 19.933594 19.199219 17.066406 22.066406 17.066406 25.601562 C 17.066406 29.132812 19.933594 32 23.464844 32 C 27 32 29.867188 29.132812 29.867188 25.601562 C 29.867188 22.066406 27 19.199219 23.464844 19.199219 Z M 23.464844 23.464844 C 24.644531 23.464844 25.601562 24.421875 25.601562 25.601562 C 25.601562 26.777344 24.644531 27.734375 23.464844 27.734375 C 22.289062 27.734375 21.332031 26.777344 21.332031 25.601562 C 21.332031 24.421875 22.289062 23.464844 23.464844 23.464844 Z M 23.464844 23.464844 "/>
<path style=" stroke:none;fill-rule:nonzero;fill:rgb(52.54902%,54.901961%,59.607843%);fill-opacity:1;" d="M 6.398438 19.199219 C 2.867188 19.199219 0 22.066406 0 25.601562 C 0 29.132812 2.867188 32 6.398438 32 C 9.933594 32 12.800781 29.132812 12.800781 25.601562 C 12.800781 22.066406 9.933594 19.199219 6.398438 19.199219 Z M 6.398438 23.464844 C 7.578125 23.464844 8.535156 24.421875 8.535156 25.601562 C 8.535156 26.777344 7.578125 27.734375 6.398438 27.734375 C 5.222656 27.734375 4.265625 26.777344 4.265625 25.601562 C 4.265625 24.421875 5.222656 23.464844 6.398438 23.464844 Z M 6.398438 23.464844 "/>
<path style=" stroke:none;fill-rule:nonzero;fill:rgb(52.54902%,54.901961%,59.607843%);fill-opacity:1;" d="M 12.800781 8.535156 L 14.933594 8.535156 L 14.933594 10.667969 L 12.800781 10.667969 Z M 12.800781 8.535156 "/>
<path style=" stroke:none;fill-rule:nonzero;fill:rgb(52.54902%,54.901961%,59.607843%);fill-opacity:1;" d="M 12.800781 4.265625 L 14.933594 4.265625 L 14.933594 6.398438 L 12.800781 6.398438 Z M 12.800781 4.265625 "/>
<path style=" stroke:none;fill-rule:nonzero;fill:rgb(52.54902%,54.901961%,59.607843%);fill-opacity:1;" d="M 12.800781 0 L 14.933594 0 L 14.933594 2.132812 L 12.800781 2.132812 Z M 12.800781 0 "/>
<path style=" stroke:none;fill-rule:nonzero;fill:rgb(52.54902%,54.901961%,59.607843%);fill-opacity:1;" d="M 17.066406 0 L 19.199219 0 L 19.199219 2.132812 L 17.066406 2.132812 Z M 17.066406 0 "/>
<path style=" stroke:none;fill-rule:nonzero;fill:rgb(52.54902%,54.901961%,59.607843%);fill-opacity:1;" d="M 21.332031 0 L 23.464844 0 L 23.464844 2.132812 L 21.332031 2.132812 Z M 21.332031 0 "/>
<path style=" stroke:none;fill-rule:nonzero;fill:rgb(52.54902%,54.901961%,59.607843%);fill-opacity:1;" d="M 25.601562 0 L 27.734375 0 L 27.734375 2.132812 L 25.601562 2.132812 Z M 25.601562 0 "/>
<path style=" stroke:none;fill-rule:nonzero;fill:rgb(52.54902%,54.901961%,59.607843%);fill-opacity:1;" d="M 29.867188 0 L 32 0 L 32 2.132812 L 29.867188 2.132812 Z M 29.867188 0 "/>
</g>
</svg>
