<?xml version="1.0" encoding="UTF-8"?>
<svg xmlns="http://www.w3.org/2000/svg" xmlns:xlink="http://www.w3.org/1999/xlink" width="32pt" height="32pt" viewBox="0 0 32 32" version="1.1">
<g id="surface1">
<path style=" stroke:none;fill-rule:nonzero;fill:#A4ADB2;fill-opacity:1;" d="M 0 0 L 0 32 L 32 32 L 32 0 Z M 2.285156 2.285156 L 29.714844 2.285156 L 29.714844 29.714844 L 2.285156 29.714844 Z M 2.285156 2.285156 "/>
<path style=" stroke:none;fill-rule:nonzero;fill:#A4ADB2;fill-opacity:1;" d="M 4.570312 9.144531 L 6.855469 6.855469 L 6.855469 18.285156 L 9.144531 13.714844 L 11.429688 18.285156 L 11.429688 9.144531 L 13.714844 9.144531 L 13.714844 11.429688 L 16 13.714844 L 16 16 L 18.285156 18.285156 L 20.570312 16 L 20.570312 11.429688 L 22.855469 13.714844 L 22.855469 4.570312 L 25.144531 6.855469 L 25.144531 11.429688 L 27.429688 13.714844 L 27.429688 22.855469 L 4.570312 22.855469 Z M 4.570312 9.144531 "/>
<path style=" stroke:none;fill-rule:nonzero;fill:#A4ADB2;fill-opacity:1;" d="M 4.570312 25.144531 L 27.429688 25.144531 L 27.429688 27.429688 L 4.570312 27.429688 Z M 4.570312 25.144531 "/>
</g>
</svg>
