<?xml version="1.0" encoding="UTF-8"?>
<svg xmlns="http://www.w3.org/2000/svg" xmlns:xlink="http://www.w3.org/1999/xlink" width="32pt" height="32pt" viewBox="0 0 32 32" version="1.1">
<g id="surface1">
<path style=" stroke:none;fill-rule:nonzero;fill:rgb(52.54902%,54.901961%,59.607843%);fill-opacity:1;" d="M 3.292969 19.996094 L 28.707031 19.996094 C 29.398438 19.996094 29.953125 20.445312 29.953125 20.996094 C 29.953125 21.550781 29.398438 21.996094 28.707031 21.996094 L 3.292969 21.996094 C 2.601562 21.996094 2.046875 21.550781 2.046875 20.996094 C 2.046875 20.445312 2.601562 19.996094 3.292969 19.996094 Z M 3.292969 19.996094 "/>
<path style=" stroke:none;fill-rule:nonzero;fill:rgb(52.54902%,54.901961%,59.607843%);fill-opacity:1;" d="M 24.527344 13.09375 L 19.101562 9.996094 L 17.550781 11.542969 L 20.652344 15.417969 L 22.203125 24.714844 L 24.050781 28 L 24.050781 32 L 26.050781 30 L 26.078125 22.390625 Z M 24.527344 13.09375 "/>
<path style=" stroke:none;fill-rule:nonzero;fill:rgb(52.54902%,54.901961%,59.607843%);fill-opacity:1;" d="M 7.574219 13.09375 L 12.921875 9.996094 L 14.449219 11.542969 L 11.394531 15.417969 L 9.867188 24.714844 L 8.046875 28 L 8.046875 32 L 6.046875 30 L 6.046875 22.390625 Z M 7.574219 13.09375 "/>
<path style=" stroke:none;fill-rule:nonzero;fill:rgb(52.54902%,54.901961%,59.607843%);fill-opacity:1;" d="M 15.546875 0 L 16.546875 0 C 17.378906 0 18.050781 0.539062 18.050781 1.199219 L 18.050781 2.792969 C 18.050781 3.457031 17.378906 3.992188 16.546875 3.992188 L 15.546875 3.992188 C 14.71875 3.992188 14.046875 3.457031 14.046875 2.792969 L 14.046875 1.199219 C 14.046875 0.539062 14.71875 0 15.546875 0 Z M 15.546875 0 "/>
<path style=" stroke:none;fill-rule:nonzero;fill:rgb(52.54902%,54.901961%,59.607843%);fill-opacity:1;" d="M 16.046875 17.996094 C 17.152344 17.996094 18.050781 18.988281 18.050781 20.210938 L 18.050781 21.785156 C 18.050781 23.007812 17.152344 24 16.046875 24 C 14.945312 24 14.046875 23.007812 14.046875 21.785156 L 14.046875 20.210938 C 14.046875 18.988281 14.945312 17.996094 16.046875 17.996094 Z M 16.046875 17.996094 "/>
<path style=" stroke:none;fill-rule:nonzero;fill:rgb(52.54902%,54.901961%,59.607843%);fill-opacity:1;" d="M 16.046875 1.992188 C 12.734375 1.992188 10.046875 4.679688 10.046875 7.996094 C 10.046875 11.308594 12.734375 13.996094 16.046875 13.996094 C 19.363281 13.996094 22.050781 11.308594 22.050781 7.996094 C 22.050781 4.679688 19.363281 1.992188 16.046875 1.992188 Z M 16.046875 4.929688 C 17.738281 4.929688 19.113281 6.304688 19.113281 7.996094 C 19.113281 9.683594 17.738281 11.058594 16.046875 11.058594 C 14.359375 11.058594 12.984375 9.683594 12.984375 7.996094 C 12.984375 6.304688 14.359375 4.929688 16.046875 4.929688 Z M 16.046875 4.929688 "/>
</g>
</svg>
