<?xml version="1.0" encoding="UTF-8"?>
<svg xmlns="http://www.w3.org/2000/svg" xmlns:xlink="http://www.w3.org/1999/xlink" width="32pt" height="32pt" viewBox="0 0 32 32" version="1.1">
<g id="surface1">
<path style=" stroke:none;fill-rule:nonzero;fill:#A4ADB2;fill-opacity:1;" d="M 16.132812 32 L 16.132812 28 L 26.132812 28 L 26.132812 32 Z M 16.132812 32 "/>
<path style=" stroke:none;fill-rule:nonzero;fill:#A4ADB2;fill-opacity:1;" d="M 18.132812 2 L 18.132812 6 C 18.132812 6 14.132812 10 14.132812 18 C 16.132812 21.292969 16.132812 22.929688 16.132812 24 L 16.132812 26 L 26.132812 26 L 26.132812 24 C 26.132812 22.972656 26.132812 21.160156 28.132812 18 C 28.132812 10 24.132812 6 24.132812 6 L 24.132812 2 L 22.132812 2 L 22.132812 11.9375 C 23.367188 12.347656 24.257812 13.5 24.257812 14.875 C 24.257812 16.59375 22.847656 18 21.132812 18 C 19.414062 18 18.007812 16.59375 18.007812 14.875 C 18.007812 13.515625 18.914062 12.359375 20.132812 11.9375 L 20.132812 2 Z M 18.132812 2 "/>
<path style=" stroke:none;fill-rule:nonzero;fill:#A4ADB2;fill-opacity:1;" d="M 10.53125 14.96875 C 10.53125 13.109375 9.039062 11.601562 7.199219 11.601562 C 5.359375 11.601562 3.867188 13.109375 3.867188 14.96875 C 3.867188 16.824219 5.359375 18.332031 7.199219 18.332031 C 9.039062 18.332031 10.53125 16.824219 10.53125 14.96875 Z M 10.53125 14.96875 "/>
<path style=" stroke:none;fill-rule:nonzero;fill:#A4ADB2;fill-opacity:1;" d="M 6.132812 6 L 8.132812 6 L 8.132812 27.457031 L 6.132812 27.457031 Z M 6.132812 6 "/>
<path style=" stroke:none;fill-rule:nonzero;fill:#A4ADB2;fill-opacity:1;" d="M 4.132812 0 L 10.132812 0 L 10.132812 6 L 4.132812 6 Z M 4.132812 0 "/>
<path style=" stroke:none;fill-rule:nonzero;fill:#A4ADB2;fill-opacity:1;" d="M 4.132812 32 L 10.132812 32 L 10.132812 26 L 4.132812 26 Z M 4.132812 32 "/>
</g>
</svg>
