<?xml version="1.0" encoding="UTF-8"?>
<svg xmlns="http://www.w3.org/2000/svg" xmlns:xlink="http://www.w3.org/1999/xlink" width="32pt" height="32pt" viewBox="0 0 32 32" version="1.1">
<g id="surface1">
<path style=" stroke:none;fill-rule:nonzero;fill:rgb(52.54902%,54.901961%,59.607843%);fill-opacity:1;" d="M 0 18.046875 L 0 22.046875 L 10 22.046875 L 6.667969 18.046875 Z M 10 22.046875 L 20 22.046875 L 20 18.046875 L 13.332031 18.046875 Z M 10 22.046875 "/>
<path style=" stroke:none;fill-rule:nonzero;fill:rgb(52.54902%,54.901961%,59.607843%);fill-opacity:1;" d="M 3.332031 16.1875 C 3.332031 16.1875 8.667969 16.1875 8.667969 6.875 C 10 5.015625 11.332031 6.875 11.332031 6.875 C 11.332031 16.1875 16.667969 16.1875 16.667969 16.1875 L 16.667969 18.046875 L 3.332031 18.046875 Z M 3.332031 16.1875 "/>
<path style=" stroke:none;fill-rule:nonzero;fill:rgb(52.54902%,54.901961%,59.607843%);fill-opacity:1;" d="M 14 8.046875 C 14 5.839844 12.210938 4.046875 10 4.046875 C 7.789062 4.046875 6 5.839844 6 8.046875 C 6 10.257812 7.789062 12.046875 10 12.046875 C 12.210938 12.046875 14 10.257812 14 8.046875 Z M 14 8.046875 "/>
<path style=" stroke:none;fill-rule:nonzero;fill:rgb(52.54902%,54.901961%,59.607843%);fill-opacity:1;" d="M 20 12.046875 L 18 16.046875 L 22 16.046875 L 22 24.046875 L 14 24.046875 L 10 30.046875 L 32 30.046875 L 26 12.046875 Z M 20 12.046875 "/>
</g>
</svg>
