<?xml version="1.0" encoding="UTF-8"?>
<svg xmlns="http://www.w3.org/2000/svg" xmlns:xlink="http://www.w3.org/1999/xlink" width="32pt" height="32pt" viewBox="0 0 32 32" version="1.1">
<g id="surface1">
<path style=" stroke:none;fill-rule:nonzero;fill:rgb(52.54902%,54.901961%,59.607843%);fill-opacity:1;" d="M 10.789062 9.667969 L 32 9.667969 L 32 11.800781 L 10.789062 11.800781 Z M 10.789062 9.667969 "/>
<path style=" stroke:none;fill-rule:nonzero;fill:rgb(52.54902%,54.901961%,59.607843%);fill-opacity:1;" d="M 10.664062 28.867188 L 31.878906 28.867188 L 31.878906 30.949219 L 10.664062 30.949219 Z M 10.664062 28.867188 "/>
<path style=" stroke:none;fill-rule:nonzero;fill:rgb(52.54902%,54.901961%,59.607843%);fill-opacity:1;" d="M 10.667969 9.667969 L 12.800781 9.667969 L 12.800781 31 L 10.667969 31 Z M 10.667969 9.667969 "/>
<path style=" stroke:none;fill-rule:nonzero;fill:rgb(52.54902%,54.901961%,59.607843%);fill-opacity:1;" d="M 29.867188 9.890625 L 32 9.890625 L 32 31 L 29.867188 31 Z M 29.867188 9.890625 "/>
<path style=" stroke:none;fill-rule:nonzero;fill:rgb(52.54902%,54.901961%,59.607843%);fill-opacity:1;" d="M 0.00390625 1.136719 L 21.214844 1.136719 L 21.214844 3.269531 L 0.00390625 3.269531 Z M 0.00390625 1.136719 "/>
<path style=" stroke:none;fill-rule:nonzero;fill:rgb(52.54902%,54.901961%,59.607843%);fill-opacity:1;" d="M 0 20.332031 L 21.210938 20.332031 L 21.210938 22.414062 L 0 22.414062 Z M 0 20.332031 "/>
<path style=" stroke:none;fill-rule:nonzero;fill:rgb(52.54902%,54.901961%,59.607843%);fill-opacity:1;" d="M 0.00390625 1.136719 L 2.136719 1.136719 L 2.136719 22.46875 L 0.00390625 22.46875 Z M 0.00390625 1.136719 "/>
<path style=" stroke:none;fill-rule:nonzero;fill:rgb(52.54902%,54.901961%,59.607843%);fill-opacity:1;" d="M 19.199219 1.136719 L 21.335938 1.136719 L 21.335938 22.46875 L 19.199219 22.46875 Z M 19.199219 1.136719 "/>
<path style=" stroke:none;fill-rule:nonzero;fill:rgb(52.54902%,54.901961%,59.607843%);fill-opacity:1;" d="M 0.00390625 3.269531 L 10.667969 11.800781 L 12.800781 9.667969 L 2.136719 1.136719 Z M 0.00390625 3.269531 "/>
<path style=" stroke:none;fill-rule:nonzero;fill:rgb(52.54902%,54.901961%,59.607843%);fill-opacity:1;" d="M 19.199219 3.269531 L 29.867188 11.800781 L 32 9.667969 L 21.335938 1.136719 Z M 19.199219 3.269531 "/>
<path style=" stroke:none;fill-rule:nonzero;fill:rgb(52.54902%,54.901961%,59.607843%);fill-opacity:1;" d="M 0.00390625 22.46875 L 10.667969 31 L 12.800781 28.867188 L 2.136719 20.332031 Z M 0.00390625 22.46875 "/>
<path style=" stroke:none;fill-rule:nonzero;fill:rgb(52.54902%,54.901961%,59.607843%);fill-opacity:1;" d="M 19.199219 22.46875 L 29.867188 31 L 32 28.867188 L 21.335938 20.332031 Z M 19.199219 22.46875 "/>
</g>
</svg>
