<?xml version="1.0" encoding="UTF-8"?>
<svg xmlns="http://www.w3.org/2000/svg" xmlns:xlink="http://www.w3.org/1999/xlink" width="32pt" height="32pt" viewBox="0 0 32 32" version="1.1">
<defs>
<filter id="alpha" filterUnits="objectBoundingBox" x="0%" y="0%" width="100%" height="100%">
  <feColorMatrix type="matrix" in="SourceGraphic" values="0 0 0 0 1 0 0 0 0 1 0 0 0 0 1 0 0 0 1 0"/>
</filter>
<mask id="mask0">
  <g filter="url(#alpha)">
<rect x="0" y="0" width="32" height="32" style="fill:rgb(0%,0%,0%);fill-opacity:0.301961;stroke:none;"/>
  </g>
</mask>
<clipPath id="clip1">
  <rect width="32" height="32"/>
</clipPath>
<g id="surface6" clip-path="url(#clip1)">
<path style=" stroke:none;fill-rule:nonzero;fill:#A4ADB2;fill-opacity:1;" d="M 4.570312 4.570312 L 11.429688 4.570312 L 11.429688 11.429688 L 4.570312 11.429688 Z M 4.570312 4.570312 "/>
</g>
<mask id="mask1">
  <g filter="url(#alpha)">
<rect x="0" y="0" width="32" height="32" style="fill:rgb(0%,0%,0%);fill-opacity:0.301961;stroke:none;"/>
  </g>
</mask>
<clipPath id="clip2">
  <rect width="32" height="32"/>
</clipPath>
<g id="surface9" clip-path="url(#clip2)">
<path style=" stroke:none;fill-rule:nonzero;fill:#A4ADB2;fill-opacity:1;" d="M 27.429688 27.429688 L 27.429688 22.855469 L 22.855469 22.855469 L 22.855469 27.429688 Z M 27.429688 27.429688 "/>
</g>
<mask id="mask2">
  <g filter="url(#alpha)">
<rect x="0" y="0" width="32" height="32" style="fill:rgb(0%,0%,0%);fill-opacity:0.301961;stroke:none;"/>
  </g>
</mask>
<clipPath id="clip3">
  <rect width="32" height="32"/>
</clipPath>
<g id="surface12" clip-path="url(#clip3)">
<path style=" stroke:none;fill-rule:nonzero;fill:#A4ADB2;fill-opacity:1;" d="M 18.285156 22.855469 L 18.285156 16 L 11.429688 16 L 11.429688 22.855469 Z M 18.285156 22.855469 "/>
</g>
<mask id="mask3">
  <g filter="url(#alpha)">
<rect x="0" y="0" width="32" height="32" style="fill:rgb(0%,0%,0%);fill-opacity:0.301961;stroke:none;"/>
  </g>
</mask>
<clipPath id="clip4">
  <rect width="32" height="32"/>
</clipPath>
<g id="surface15" clip-path="url(#clip4)">
<path style=" stroke:none;fill-rule:nonzero;fill:#A4ADB2;fill-opacity:1;" d="M 16 16 L 16 11.429688 L 9.144531 11.429688 L 9.144531 16 Z M 16 16 "/>
</g>
</defs>
<g id="surface1">
<path style=" stroke:none;fill-rule:nonzero;fill:#A4ADB2;fill-opacity:1;" d="M 9.144531 11.429688 L 4.570312 11.429688 L 4.570312 16 L 9.144531 16 Z M 9.144531 11.429688 "/>
<use xlink:href="#surface6" mask="url(#mask0)"/>
<path style=" stroke:none;fill-rule:nonzero;fill:#A4ADB2;fill-opacity:1;" d="M 0 0 L 0 32 L 32 32 L 32 0 Z M 2.285156 2.285156 L 29.714844 2.285156 L 29.714844 29.714844 L 2.285156 29.714844 Z M 2.285156 2.285156 "/>
<path style=" stroke:none;fill-rule:nonzero;fill:#A4ADB2;fill-opacity:1;" d="M 27.429688 11.429688 L 27.429688 4.570312 L 20.570312 4.570312 L 20.570312 11.429688 Z M 27.429688 11.429688 "/>
<path style=" stroke:none;fill-rule:nonzero;fill:#A4ADB2;fill-opacity:1;" d="M 16 4.570312 L 16 9.144531 L 11.429688 9.144531 L 11.429688 4.570312 Z M 16 4.570312 "/>
<path style=" stroke:none;fill-rule:nonzero;fill:#A4ADB2;fill-opacity:1;" d="M 22.855469 16 L 27.429688 16 L 27.429688 22.855469 L 22.855469 22.855469 Z M 22.855469 16 "/>
<path style=" stroke:none;fill-rule:nonzero;fill:#A4ADB2;fill-opacity:1;" d="M 20.570312 11.429688 L 20.570312 16 L 16 16 L 16 11.429688 Z M 20.570312 11.429688 "/>
<use xlink:href="#surface9" mask="url(#mask1)"/>
<use xlink:href="#surface12" mask="url(#mask2)"/>
<use xlink:href="#surface15" mask="url(#mask3)"/>
<path style=" stroke:none;fill-rule:nonzero;fill:#A4ADB2;fill-opacity:1;" d="M 22.855469 22.855469 L 22.855469 27.429688 L 18.285156 27.429688 L 18.285156 22.855469 Z M 22.855469 22.855469 "/>
<path style=" stroke:none;fill-rule:nonzero;fill:#A4ADB2;fill-opacity:1;" d="M 4.570312 20.570312 L 11.429688 20.570312 L 11.429688 27.429688 L 4.570312 27.429688 Z M 4.570312 20.570312 "/>
</g>
</svg>
