<?xml version="1.0" encoding="UTF-8"?>
<svg xmlns="http://www.w3.org/2000/svg" xmlns:xlink="http://www.w3.org/1999/xlink" width="32pt" height="32pt" viewBox="0 0 32 32" version="1.1">
<g id="surface1">
<path style=" stroke:none;fill-rule:nonzero;fill:rgb(52.54902%,54.901961%,59.607843%);fill-opacity:1;" d="M 0 4.265625 L 2.132812 4.265625 L 2.132812 6.398438 L 0 6.398438 Z M 0 4.265625 "/>
<path style=" stroke:none;fill-rule:nonzero;fill:rgb(52.54902%,54.901961%,59.607843%);fill-opacity:1;" d="M 25.601562 4.265625 L 27.734375 4.265625 L 27.734375 6.398438 L 25.601562 6.398438 Z M 25.601562 4.265625 "/>
<path style=" stroke:none;fill-rule:nonzero;fill:rgb(52.54902%,54.901961%,59.607843%);fill-opacity:1;" d="M 29.867188 4.265625 L 32 4.265625 L 32 6.398438 L 29.867188 6.398438 Z M 29.867188 4.265625 "/>
<path style=" stroke:none;fill-rule:nonzero;fill:rgb(52.54902%,54.901961%,59.607843%);fill-opacity:1;" d="M 0 8.535156 L 2.132812 8.535156 L 2.132812 10.667969 L 0 10.667969 Z M 0 8.535156 "/>
<path style=" stroke:none;fill-rule:nonzero;fill:rgb(52.54902%,54.901961%,59.607843%);fill-opacity:1;" d="M 21.332031 4.265625 L 23.464844 4.265625 L 23.464844 6.398438 L 21.332031 6.398438 Z M 21.332031 4.265625 "/>
<path style=" stroke:none;fill-rule:nonzero;fill:rgb(52.54902%,54.901961%,59.607843%);fill-opacity:1;" d="M 4.265625 4.265625 L 6.398438 4.265625 L 6.398438 6.398438 L 4.265625 6.398438 Z M 4.265625 4.265625 "/>
<path style=" stroke:none;fill-rule:nonzero;fill:rgb(52.54902%,54.901961%,59.607843%);fill-opacity:1;" d="M 8.535156 4.265625 L 10.667969 4.265625 L 10.667969 6.398438 L 8.535156 6.398438 Z M 8.535156 4.265625 "/>
<path style=" stroke:none;fill-rule:nonzero;fill:rgb(52.54902%,54.901961%,59.607843%);fill-opacity:1;" d="M 12.800781 4.265625 L 14.933594 4.265625 L 14.933594 6.398438 L 12.800781 6.398438 Z M 12.800781 4.265625 "/>
<path style=" stroke:none;fill-rule:nonzero;fill:rgb(52.54902%,54.901961%,59.607843%);fill-opacity:1;" d="M 17.066406 4.265625 L 19.199219 4.265625 L 19.199219 6.398438 L 17.066406 6.398438 Z M 17.066406 4.265625 "/>
<path style=" stroke:none;fill-rule:nonzero;fill:rgb(52.54902%,54.901961%,59.607843%);fill-opacity:1;" d="M 0 12.800781 L 2.132812 12.800781 L 2.132812 14.933594 L 0 14.933594 Z M 0 12.800781 "/>
<path style=" stroke:none;fill-rule:nonzero;fill:rgb(52.54902%,54.901961%,59.607843%);fill-opacity:1;" d="M 0 17.066406 L 2.132812 17.066406 L 2.132812 19.199219 L 0 19.199219 Z M 0 17.066406 "/>
<path style=" stroke:none;fill-rule:nonzero;fill:rgb(52.54902%,54.901961%,59.607843%);fill-opacity:1;" d="M 4.265625 25.601562 L 6.398438 25.601562 L 6.398438 27.734375 L 4.265625 27.734375 Z M 4.265625 25.601562 "/>
<path style=" stroke:none;fill-rule:nonzero;fill:rgb(52.54902%,54.901961%,59.607843%);fill-opacity:1;" d="M 8.535156 25.601562 L 10.667969 25.601562 L 10.667969 27.734375 L 8.535156 27.734375 Z M 8.535156 25.601562 "/>
<path style=" stroke:none;fill-rule:nonzero;fill:rgb(52.54902%,54.901961%,59.607843%);fill-opacity:1;" d="M 12.800781 25.601562 L 14.933594 25.601562 L 14.933594 27.734375 L 12.800781 27.734375 Z M 12.800781 25.601562 "/>
<path style=" stroke:none;fill-rule:nonzero;fill:rgb(52.54902%,54.901961%,59.607843%);fill-opacity:1;" d="M 17.066406 25.601562 L 19.199219 25.601562 L 19.199219 27.734375 L 17.066406 27.734375 Z M 17.066406 25.601562 "/>
<path style=" stroke:none;fill-rule:nonzero;fill:rgb(52.54902%,54.901961%,59.607843%);fill-opacity:1;" d="M 21.332031 25.601562 L 23.464844 25.601562 L 23.464844 27.734375 L 21.332031 27.734375 Z M 21.332031 25.601562 "/>
<path style=" stroke:none;fill-rule:nonzero;fill:rgb(52.54902%,54.901961%,59.607843%);fill-opacity:1;" d="M 25.601562 25.601562 L 27.734375 25.601562 L 27.734375 27.734375 L 25.601562 27.734375 Z M 25.601562 25.601562 "/>
<path style=" stroke:none;fill-rule:nonzero;fill:rgb(52.54902%,54.901961%,59.607843%);fill-opacity:1;" d="M 29.867188 25.601562 L 32 25.601562 L 32 27.734375 L 29.867188 27.734375 Z M 29.867188 25.601562 "/>
<path style=" stroke:none;fill-rule:nonzero;fill:rgb(52.54902%,54.901961%,59.607843%);fill-opacity:1;" d="M 29.867188 21.332031 L 32 21.332031 L 32 23.464844 L 29.867188 23.464844 Z M 29.867188 21.332031 "/>
<path style=" stroke:none;fill-rule:nonzero;fill:rgb(52.54902%,54.901961%,59.607843%);fill-opacity:1;" d="M 29.867188 17.066406 L 32 17.066406 L 32 19.199219 L 29.867188 19.199219 Z M 29.867188 17.066406 "/>
<path style=" stroke:none;fill-rule:nonzero;fill:rgb(52.54902%,54.901961%,59.607843%);fill-opacity:1;" d="M 29.867188 12.800781 L 32 12.800781 L 32 14.933594 L 29.867188 14.933594 Z M 29.867188 12.800781 "/>
<path style=" stroke:none;fill-rule:nonzero;fill:rgb(52.54902%,54.901961%,59.607843%);fill-opacity:1;" d="M 29.867188 8.535156 L 32 8.535156 L 32 10.667969 L 29.867188 10.667969 Z M 29.867188 8.535156 "/>
<path style=" stroke:none;fill-rule:nonzero;fill:rgb(52.54902%,54.901961%,59.607843%);fill-opacity:1;" d="M 6.398438 10.667969 L 25.601562 10.667969 L 25.601562 21.332031 L 6.398438 21.332031 Z M 6.398438 10.667969 "/>
<path style=" stroke:none;fill-rule:nonzero;fill:rgb(52.54902%,54.901961%,59.607843%);fill-opacity:1;" d="M 0 21.332031 L 2.132812 21.332031 L 2.132812 23.464844 L 0 23.464844 Z M 0 21.332031 "/>
<path style=" stroke:none;fill-rule:nonzero;fill:rgb(52.54902%,54.901961%,59.607843%);fill-opacity:1;" d="M 0 25.601562 L 2.132812 25.601562 L 2.132812 27.734375 L 0 27.734375 Z M 0 25.601562 "/>
</g>
</svg>
