<?xml version="1.0" encoding="UTF-8"?>
<svg xmlns="http://www.w3.org/2000/svg" xmlns:xlink="http://www.w3.org/1999/xlink" width="32pt" height="32pt" viewBox="0 0 32 32" version="1.1">
<g id="surface1">
<path style=" stroke:none;fill-rule:nonzero;fill:#A4ADB2;fill-opacity:1;" d="M 6.027344 0 L 6.027344 9.980469 C 7.992188 9.96875 10.246094 10.015625 12.015625 9.980469 L 16.007812 9.980469 L 12.386719 6.363281 L 12.386719 6.300781 C 13.128906 4.84375 14.894531 3.742188 17.128906 3.742188 C 20.109375 3.742188 22.246094 5.746094 22.246094 7.859375 C 22.066406 8.941406 23.019531 10.0625 24.117188 10.0625 C 25.210938 10.0625 26.164062 8.941406 25.988281 7.859375 C 25.988281 3.355469 21.867188 0 17.128906 0 C 14.054688 0 11.242188 1.394531 9.644531 3.617188 Z M 6.027344 0 "/>
<path style=" stroke:none;fill-rule:nonzero;fill:#A4ADB2;fill-opacity:1;" d="M 7.585938 21.957031 C 6.550781 22.128906 5.851562 23.105469 6.027344 24.140625 C 6.027344 28.644531 10.148438 32 14.882812 32 C 17.957031 32 20.773438 30.605469 22.367188 28.382812 L 25.988281 32 L 25.988281 22.019531 L 22.308594 22.019531 C 22 21.941406 21.679688 21.941406 21.371094 22.019531 L 16.007812 22.019531 L 19.625 25.636719 C 19.617188 25.65625 19.632812 25.683594 19.625 25.699219 C 18.882812 27.15625 17.117188 28.257812 14.882812 28.257812 C 11.902344 28.257812 9.769531 26.253906 9.769531 24.140625 C 9.871094 23.535156 9.671875 22.921875 9.238281 22.488281 C 8.804688 22.054688 8.191406 21.855469 7.585938 21.957031 Z M 7.585938 21.957031 "/>
<path style=" stroke:none;fill-rule:nonzero;fill:#A4ADB2;fill-opacity:1;" d="M 12.953125 13.972656 L 19.0625 13.972656 C 19.578125 13.972656 20 14.433594 20 15 L 20 16.9375 C 20 17.503906 19.578125 17.964844 19.0625 17.964844 L 12.953125 17.964844 C 12.433594 17.964844 12.015625 17.503906 12.015625 16.9375 L 12.015625 15 C 12.015625 14.433594 12.433594 13.972656 12.953125 13.972656 Z M 12.953125 13.972656 "/>
</g>
</svg>
