<?xml version="1.0" encoding="UTF-8"?>
<svg xmlns="http://www.w3.org/2000/svg" xmlns:xlink="http://www.w3.org/1999/xlink" width="32pt" height="32pt" viewBox="0 0 32 32" version="1.1">
<g id="surface1">
<path style=" stroke:none;fill-rule:nonzero;fill:rgb(52.54902%,54.901961%,59.607843%);fill-opacity:1;" d="M 0.9375 28 L 7.0625 28 C 7.578125 28 8 28.460938 8 29.027344 L 8 30.972656 C 8 31.539062 7.578125 32 7.0625 32 L 0.9375 32 C 0.421875 32 0 31.539062 0 30.972656 L 0 29.027344 C 0 28.460938 0.421875 28 0.9375 28 Z M 0.9375 28 "/>
<path style=" stroke:none;fill-rule:nonzero;fill:rgb(52.54902%,54.901961%,59.607843%);fill-opacity:1;" d="M 13.667969 0 C 12.742188 0 12 0.765625 12 1.714844 L 12 10.285156 C 12 11.234375 12.742188 12 13.667969 12 L 30.332031 12 C 31.257812 12 32 11.234375 32 10.285156 L 32 1.714844 C 32 0.765625 31.257812 0 30.332031 0 Z M 13.667969 0 "/>
<path style=" stroke:none;fill-rule:nonzero;fill:rgb(52.54902%,54.901961%,59.607843%);fill-opacity:1;" d="M 12 16 L 16 20 L 10 26 L 12 28 L 18 22 L 22 26 L 22 16 Z M 12 16 "/>
</g>
</svg>
