<?xml version="1.0" encoding="UTF-8"?>
<svg xmlns="http://www.w3.org/2000/svg" xmlns:xlink="http://www.w3.org/1999/xlink" width="32pt" height="32pt" viewBox="0 0 32 32" version="1.1">
<g id="surface1">
<path style=" stroke:none;fill-rule:nonzero;fill:rgb(52.54902%,54.901961%,59.607843%);fill-opacity:1;" d="M 18.824219 0 C 17.8125 -0.0078125 16.726562 0.0625 15.664062 0.195312 C 7.15625 1.253906 0.617188 6.621094 1.015625 12.195312 C 1.417969 17.765625 8.578125 21.382812 17.082031 20.324219 C 25.585938 19.261719 32.191406 13.894531 31.789062 8.324219 C 31.441406 3.449219 25.90625 0.0664062 18.824219 0 Z M 18.4375 3.097656 C 21.285156 3.121094 23.796875 3.742188 25.660156 4.773438 C 27.527344 5.808594 28.746094 7.253906 28.886719 8.96875 C 29.207031 12.886719 23.917969 16.675781 17.082031 17.417969 C 10.246094 18.164062 4.433594 15.597656 4.113281 11.679688 C 3.792969 7.757812 9.082031 3.972656 15.921875 3.226562 C 16.773438 3.132812 17.621094 3.089844 18.4375 3.097656 Z M 18.4375 3.097656 "/>
<path style=" stroke:none;fill-rule:nonzero;fill:rgb(52.54902%,54.901961%,59.607843%);fill-opacity:1;" d="M 8.242188 13.417969 C 5.960938 13.417969 4.113281 15.269531 4.113281 17.546875 C 4.113281 19.828125 5.960938 21.675781 8.242188 21.675781 C 10.523438 21.675781 12.371094 19.828125 12.371094 17.546875 C 12.371094 15.269531 10.523438 13.417969 8.242188 13.417969 Z M 8.242188 15.484375 C 9.382812 15.484375 10.308594 16.410156 10.308594 17.546875 C 10.308594 18.6875 9.382812 19.613281 8.242188 19.613281 C 7.101562 19.613281 6.179688 18.6875 6.179688 17.546875 C 6.179688 16.410156 7.101562 15.484375 8.242188 15.484375 Z M 8.242188 15.484375 "/>
<path style=" stroke:none;fill-rule:nonzero;fill:rgb(52.54902%,54.901961%,59.607843%);fill-opacity:1;" d="M 8.242188 19.613281 C 8.242188 19.613281 17.339844 25.804688 8.242188 32 L 12.4375 32 C 19.984375 26.746094 12.402344 19.613281 12.402344 19.613281 Z M 8.242188 19.613281 "/>
</g>
</svg>
