<?xml version="1.0" encoding="UTF-8"?>
<svg xmlns="http://www.w3.org/2000/svg" xmlns:xlink="http://www.w3.org/1999/xlink" width="32pt" height="32pt" viewBox="0 0 32 32" version="1.1">
<g id="surface1">
<path style=" stroke:none;fill-rule:nonzero;fill:rgb(52.54902%,54.901961%,59.607843%);fill-opacity:1;" d="M 16.507812 0 C 11.402344 0 7.179688 1.847656 3.738281 4.898438 C 2.046875 6.394531 1.882812 9.113281 3.738281 9.796875 C 2.882812 10.585938 2.65625 11.785156 3.242188 12.964844 L 3.738281 13.691406 C 4.390625 14.363281 5.414062 14.617188 5.414062 14.617188 C 4.558594 15.570312 4.664062 17.003906 5.65625 17.828125 L 6.054688 18.210938 C 7.046875 19.035156 8.550781 18.9375 9.40625 17.984375 C 9.40625 17.984375 9.238281 18.179688 9.40625 17.984375 L 0.867188 27.472656 C -1.945312 29.988281 2.75 33.921875 5.574219 30.914062 L 16.988281 18.824219 L 19.0625 16.683594 C 21.828125 13.785156 27.359375 20.457031 21.617188 22.039062 C 21.617188 22.039062 19.246094 22.210938 16.75 22.113281 C 14.777344 22.039062 13.253906 27.609375 19.863281 26.9375 C 29.824219 27.074219 31.832031 17.140625 31.832031 12.320312 C 31.832031 2.449219 24.171875 0 16.507812 0 Z M 16.507812 0 "/>
</g>
</svg>
