<?xml version="1.0" encoding="UTF-8"?>
<svg xmlns="http://www.w3.org/2000/svg" xmlns:xlink="http://www.w3.org/1999/xlink" width="32pt" height="32pt" viewBox="0 0 32 32" version="1.1">
<g id="surface1">
<path style=" stroke:none;fill-rule:nonzero;fill:#A4ADB2;fill-opacity:1;" d="M 1 21.332031 L 30.867188 21.332031 L 30.867188 23.464844 L 1 23.464844 Z M 1 21.332031 "/>
<path style=" stroke:none;fill-rule:nonzero;fill:#A4ADB2;fill-opacity:1;" d="M 5.265625 25.601562 L 1 32 L 9.535156 32 Z M 5.265625 25.601562 "/>
<path style=" stroke:none;fill-rule:nonzero;fill:#A4ADB2;fill-opacity:1;" d="M 26.601562 25.601562 L 22.332031 32 L 30.867188 32 Z M 26.601562 25.601562 "/>
<path style=" stroke:none;fill-rule:nonzero;fill:#A4ADB2;fill-opacity:1;" d="M 1 0 L 1 17.066406 L 30.867188 17.066406 L 30.867188 0 Z M 3.132812 2.132812 L 28.734375 2.132812 L 28.734375 14.933594 L 3.132812 14.933594 Z M 3.132812 2.132812 "/>
<path style=" stroke:none;fill-rule:nonzero;fill:#A4ADB2;fill-opacity:1;" d="M 3.132812 14.933594 L 4.464844 13.800781 L 5.265625 12.800781 L 7.398438 12.800781 L 9.535156 10.667969 L 11.667969 10.667969 L 13.800781 12.800781 L 15.933594 12.800781 L 16.933594 14.933594 L 18.867188 14.933594 L 20.199219 12.800781 L 22.332031 10.667969 L 22.332031 8.535156 L 24.464844 10.667969 L 26.601562 12.800781 L 28.734375 13.667969 L 28.734375 14.933594 Z M 3.132812 14.933594 "/>
</g>
</svg>
