<?xml version="1.0" encoding="UTF-8"?>
<svg xmlns="http://www.w3.org/2000/svg" xmlns:xlink="http://www.w3.org/1999/xlink" width="32pt" height="32pt" viewBox="0 0 32 32" version="1.1">
<defs>
<clipPath id="clip1">
  <rect width="32" height="32"/>
</clipPath>
<g id="surface7" clip-path="url(#clip1)">
<path style=" stroke:none;fill-rule:nonzero;fill:#A4ADB2;fill-opacity:1;" d="M 19.625 18 C 18.878906 18.136719 18.273438 18.679688 18.0625 19.410156 C 17.847656 20.136719 18.066406 20.921875 18.625 21.4375 L 26.625 29.4375 C 27.417969 30.214844 28.691406 30.199219 29.46875 29.40625 C 30.246094 28.613281 30.230469 27.339844 29.4375 26.5625 L 21.4375 18.5625 C 20.964844 18.082031 20.285156 17.871094 19.625 18 Z M 19.625 18 "/>
</g>
</defs>
<g id="surface1">
<path style=" stroke:none;fill-rule:nonzero;fill:#A4ADB2;fill-opacity:1;" d="M 13.015625 1.992188 C 6.957031 1.992188 1.992188 6.949219 1.992188 13 C 1.992188 19.050781 6.957031 24.007812 13.015625 24.007812 C 19.074219 24.007812 24.035156 19.050781 24.035156 13 C 24.035156 6.949219 19.074219 1.992188 13.015625 1.992188 Z M 13.015625 6.007812 C 16.910156 6.007812 20.015625 9.109375 20.015625 13 C 20.015625 16.890625 16.910156 19.992188 13.015625 19.992188 C 9.121094 19.992188 6.015625 16.890625 6.015625 13 C 6.015625 9.109375 9.121094 6.007812 13.015625 6.007812 Z M 13.015625 6.007812 "/>
<use xlink:href="#surface7"/>
</g>
</svg>
